# xmcd
#
# Track frame offsets: 
#        150
#        48361
#        62015
#        83305
#        125520
#
# Disc length: 1990 seconds
#
# Revision: 0
# Processed by: cddbd v1.5.2PL0 Copyright (c) Steve Scherf et al.
# Submitted via: ExactAudioCopy v0.95b4
#
DISCID=3407c405
DTITLE=Blues Guys, The and The Guiness Horns - Live... Airfield ... Koso
DTITLE=vo
DYEAR=2002
DGENRE=R&B
TTITLE0=Get on the move
TTITLE1=Shake your tailfeather
TTITLE2=Dancing in the moonlight
TTITLE3=Proud Mary
TTITLE4=Open me up
EXTD=
EXTT0=
EXTT1=
EXTT2=
EXTT3=
EXTT4=
PLAYORDER=
